<svg width="32" height="25" viewBox="0 0 32 25" fill="none" xmlns="http://www.w3.org/2000/svg">
<path d="M27.8001 15.0638C28.3278 14.4377 28.8194 13.7572 29.269 13.0214L29.5875 12.5001L29.2691 11.9788C26.2095 6.96912 21.2194 4.54606 16.3198 4.54606C16.2728 4.54606 16.2257 4.54626 16.1784 4.54667L15.3458 3.79369C15.6698 3.77429 15.9946 3.76454 16.3198 3.76449L27.8001 15.0638ZM27.8001 15.0638L28.5055 15.7017C29.3378 14.7518 30.0562 13.7261 30.6492 12.6418L30.6511 12.6383C30.6779 12.5899 30.6886 12.5429 30.6886 12.5C30.6886 12.4571 30.6779 12.4102 30.6512 12.3619L27.8001 15.0638ZM7.22582 6.55484L8.27638 5.83954L7.33398 4.98677L3.61656 1.6229C3.53242 1.54197 3.50532 1.45591 3.50597 1.38831C3.50664 1.31933 3.5366 1.23073 3.62709 1.14884C3.72076 1.06409 3.86666 1.00136 4.03744 1.00002C4.20546 0.9987 4.35142 1.05719 4.44787 1.13928L29.023 23.377C29.1071 23.458 29.1342 23.5441 29.1336 23.6117C29.1329 23.6807 29.103 23.7693 29.0125 23.8512C28.9188 23.9359 28.7729 23.9986 28.6021 24C28.4341 24.0013 28.2881 23.9428 28.1916 23.8607L23.9531 20.0266L23.4713 19.5908L22.8772 19.8539C20.8088 20.7702 18.5723 21.2355 16.3198 21.2355C10.6712 21.2355 5.12331 18.3129 1.98842 12.6383C1.96169 12.5899 1.95093 12.5429 1.95093 12.5C1.95093 12.4571 1.96169 12.4101 1.98842 12.3617L1.98852 12.3616C3.34687 9.9006 5.15803 7.96277 7.22582 6.55484ZM21.2856 19.6012L21.0962 18.4976L21.6216 17.9169L18.978 15.5248L18.5006 15.0928L17.9098 15.3486C17.225 15.6451 16.4488 15.7441 15.692 15.6268C14.9353 15.5096 14.2505 15.1845 13.7276 14.7113C13.2058 14.2392 12.8731 13.6461 12.7548 13.0207C12.6367 12.3965 12.7339 11.7513 13.0417 11.1691L13.4051 10.4819L12.8286 9.96022L9.53338 6.97837L8.96799 6.46675L8.32496 6.87657C6.41293 8.09515 4.70507 9.79249 3.37032 11.979L3.05217 12.5001L3.37043 13.0212C6.43011 18.0309 11.4217 20.4539 16.3198 20.4539C17.9906 20.4539 19.6712 20.1721 21.2856 19.6012ZM16.3199 3.76449C21.967 3.76454 27.5163 6.68715 30.6511 12.3617L16.3199 3.76449Z" stroke="white" stroke-width="2"/>
</svg>
