<svg width="30" height="30" viewBox="0 0 30 30" fill="none" xmlns="http://www.w3.org/2000/svg">
<g opacity="0.8">
<path d="M15 29C22.7319 29 29 22.7319 29 15C29 7.26801 22.7319 1 15 1C7.26801 1 1 7.26801 1 15C1 22.7319 7.26801 29 15 29Z" stroke="black" stroke-width="2" stroke-linecap="round" stroke-linejoin="round"/>
<path d="M19.2 10.1C18.241 9.14102 16.5522 8.47397 15 8.43221M15 8.43221C13.1533 8.38251 11.5 9.21797 11.5 11.5C11.5 15.7 19.2 13.6 19.2 17.8C19.2 20.1954 17.1507 21.2247 15 21.1474M15 8.43221V5.9M10.8 19.2C11.7023 20.403 13.38 21.0892 15 21.1474M15 21.1474V24.1" stroke="black" stroke-width="2" stroke-linecap="round" stroke-linejoin="round"/>
</g>
</svg>
