<svg width="41" height="40" viewBox="0 0 41 40" fill="none" xmlns="http://www.w3.org/2000/svg">
<rect x="1" y="0.25" width="39.5" height="39.5" rx="5.75" fill="#EF8080"/>
<rect x="1" y="0.25" width="39.5" height="39.5" rx="5.75" stroke="black" stroke-width="0.5"/>
<path fill-rule="evenodd" clip-rule="evenodd" d="M23.2412 28.9566C23.2412 29.2333 23.3467 29.4987 23.5344 29.6944C23.7221 29.8901 23.9766 30 24.2421 30H32.2491C32.5146 30 32.7691 29.8901 32.9569 29.6944C33.1446 29.4987 33.25 29.2333 33.25 28.9566V20.6093C33.25 20.3325 33.1446 20.0671 32.9569 19.8715C32.7691 19.6758 32.5146 19.5658 32.2491 19.5658C31.9837 19.5658 31.7291 19.6758 31.5414 19.8715C31.3537 20.0671 31.2482 20.3325 31.2482 20.6093V26.035L24.0159 16.8175C23.9274 16.7048 23.8172 16.6127 23.6924 16.5472C23.5677 16.4816 23.4312 16.4439 23.2917 16.4366C23.1521 16.4294 23.0127 16.4526 22.8823 16.5049C22.7519 16.5572 22.6335 16.6374 22.5346 16.7403L17.356 22.1389L10.0376 11.6484C9.87752 11.4362 9.64475 11.2969 9.38822 11.2599C9.13168 11.2228 8.87136 11.2909 8.66196 11.4498C8.45255 11.6086 8.31037 11.8459 8.26528 12.1118C8.2202 12.3777 8.27573 12.6514 8.4202 12.8755L16.4272 24.353C16.5122 24.4751 16.6216 24.5765 16.7478 24.6502C16.874 24.724 17.014 24.7683 17.1582 24.7802C17.3024 24.7921 17.4474 24.7713 17.5832 24.7192C17.7189 24.667 17.8422 24.5848 17.9446 24.4782L23.1671 19.0316L30.1373 27.9132H24.2421C23.9766 27.9132 23.7221 28.0231 23.5344 28.2188C23.3467 28.4145 23.2412 28.6799 23.2412 28.9566Z" fill="#D14F4F"/>
</svg>
