<svg width="41" height="35" viewBox="0 0 41 35" fill="none" xmlns="http://www.w3.org/2000/svg">
<rect x="1" y="0.75" width="39.5" height="33.5" rx="5.75" fill="#98E9AB"/>
<rect x="1" y="0.75" width="39.5" height="33.5" rx="5.75" stroke="black" stroke-width="0.5"/>
<path fill-rule="evenodd" clip-rule="evenodd" d="M23.7395 6.83557C23.7395 6.48136 23.866 6.14165 24.0912 5.89118C24.3165 5.64071 24.622 5.5 24.9405 5.5H34.5489C34.8675 5.5 35.173 5.64071 35.3982 5.89118C35.6235 6.14165 35.75 6.48136 35.75 6.83557V17.5201C35.75 17.8744 35.6235 18.2141 35.3982 18.4645C35.173 18.715 34.8675 18.8557 34.5489 18.8557C34.2304 18.8557 33.9249 18.715 33.6997 18.4645C33.4744 18.2141 33.3479 17.8744 33.3479 17.5201V10.5752L24.6691 22.3736C24.5628 22.5178 24.4306 22.6357 24.2809 22.7196C24.1313 22.8036 23.9674 22.8518 23.8 22.8611C23.6326 22.8704 23.4652 22.8406 23.3088 22.7737C23.1523 22.7068 23.0102 22.6041 22.8915 22.4724L16.6773 15.5622L7.89514 28.99C7.70303 29.2617 7.4237 29.4399 7.11586 29.4874C6.80802 29.5348 6.49563 29.4477 6.24435 29.2443C5.99306 29.041 5.82244 28.7372 5.76834 28.3969C5.71424 28.0566 5.78088 27.7062 5.95424 27.4194L15.5627 12.7281C15.6647 12.5719 15.7959 12.4421 15.9473 12.3477C16.0988 12.2533 16.2668 12.1965 16.4399 12.1813C16.6129 12.1661 16.7869 12.1927 16.9498 12.2595C17.1127 12.3262 17.2607 12.4314 17.3835 12.5678L23.6506 19.5395L32.0147 8.17114H24.9405C24.622 8.17114 24.3165 8.03043 24.0912 7.77996C23.866 7.52949 23.7395 7.18979 23.7395 6.83557Z" fill="#4FD18B"/>
</svg>
