<svg width="25" height="31" viewBox="0 0 25 31" fill="none" xmlns="http://www.w3.org/2000/svg">
<path d="M22.7996 15.3895V6.39394C22.7996 6.16496 22.7135 5.94537 22.5603 5.78344L18.2704 1.25288C18.1171 1.09096 17.9092 1 17.6924 1H1.81749C1.366 1 1 1.38654 1 1.86337V28.9156C1 29.3925 1.366 29.779 1.81749 29.779H10.5373" stroke="black" stroke-width="1.31" stroke-linecap="round" stroke-linejoin="round"/>
<path d="M6.44983 12.5116H17.3497M6.44983 6.75579H11.8997M6.44983 18.2674H10.5373" stroke="black" stroke-width="1.31" stroke-linecap="round" stroke-linejoin="round"/>
<path d="M17.7661 22.7473L19.0047 19.9734C19.1637 19.6173 19.6231 19.6173 19.7821 19.9734L21.0208 22.7473L23.7908 23.1948C24.1463 23.2522 24.2878 23.7351 24.0306 24.0121L22.0265 26.1697L22.4995 29.2178C22.5602 29.6092 22.1885 29.9078 21.8705 29.7229L19.3934 28.2829L16.9163 29.7229C16.5983 29.9078 16.2266 29.6092 16.2874 29.2178L16.7603 26.1697L14.7562 24.0121C14.499 23.7351 14.6405 23.2522 14.996 23.1948L17.7661 22.7473Z" stroke="black" stroke-width="1.31" stroke-linecap="round" stroke-linejoin="round"/>
<path d="M17.3497 1V5.89243C17.3497 6.36925 17.7157 6.7558 18.1672 6.7558H22.7996" stroke="black" stroke-width="1.31" stroke-linecap="round" stroke-linejoin="round"/>
</svg>
