<svg width="33" height="31" viewBox="0 0 33 31" fill="none" xmlns="http://www.w3.org/2000/svg">
<path d="M1 5.57894C1 5.57894 1 1 13.0556 1C25.1111 1 25.1111 5.57894 25.1111 5.57894M1 5.57894C1 5.57894 1 10.1579 13.0556 10.1579C25.1111 10.1579 25.1111 5.57894 25.1111 5.57894M1 5.57894V14.7368M25.1111 5.57894V14.7368C25.1111 14.7368 25.1111 19.3158 13.0556 19.3158C1 19.3158 1 14.7368 1 14.7368M1 14.7368V23.8947C1 23.8947 1 28.4737 13.0556 28.4737" stroke="white" stroke-width="2" stroke-linecap="round" stroke-linejoin="round"/>
<path d="M23.9152 22.5413L25.4809 19.5991C25.6819 19.2213 26.2626 19.2213 26.4636 19.5991L28.0292 22.5413L31.5307 23.016C31.98 23.0769 32.159 23.5891 31.8338 23.883L29.3006 26.1715L29.8984 29.4047C29.9752 29.8199 29.5054 30.1366 29.1034 29.9404L25.9722 28.4131L22.8411 29.9404C22.4391 30.1366 21.9693 29.8199 22.0461 29.4047L22.6439 26.1715L20.1106 23.883C19.7855 23.5891 19.9644 23.0769 20.4137 23.016L23.9152 22.5413Z" stroke="white" stroke-width="2" stroke-linecap="round" stroke-linejoin="round"/>
</svg>
