<svg width="30" height="30" viewBox="0 0 30 30" fill="none" xmlns="http://www.w3.org/2000/svg">
<path d="M27.1357 1H21.4309L22.1455 8.77778C22.1455 8.77778 23.5746 10.3333 25.7184 10.3333C27.2576 10.3333 28.3056 9.53137 28.7743 9.07909C28.9611 8.89883 29.0294 8.62364 28.9884 8.35562L27.9814 1.77989C27.9125 1.32986 27.5548 1 27.1357 1Z" stroke="white" stroke-width="2"/>
<path d="M21.4312 1L22.1458 8.77778C22.1458 8.77778 20.7166 10.3333 18.5729 10.3333C16.4292 10.3333 15 8.77778 15 8.77778V1H21.4312Z" stroke="white" stroke-width="2"/>
<path d="M14.9997 1V8.77778C14.9997 8.77778 13.5705 10.3333 11.4268 10.3333C9.28303 10.3333 7.85388 8.77778 7.85388 8.77778L8.56846 1H14.9997Z" stroke="white" stroke-width="2"/>
<path d="M8.569 1H2.86421C2.44504 1 2.08731 1.32986 2.01839 1.77989L1.01148 8.35563C0.970453 8.62364 1.03881 8.89883 1.2256 9.07909C1.69425 9.53137 2.74227 10.3333 4.28151 10.3333C6.42524 10.3333 7.85442 8.77778 7.85442 8.77778L8.569 1Z" stroke="white" stroke-width="2"/>
<path d="M2.14758 10.3335V25.889C2.14758 27.6073 3.42729 29.0001 5.00589 29.0001H25.014C26.5927 29.0001 27.8723 27.6073 27.8723 25.889V10.3335" stroke="white" stroke-width="2"/>
<path d="M19.0589 29V19.6666C19.0589 17.9484 17.7792 16.5555 16.2006 16.5555H13.3423C11.7637 16.5555 10.484 17.9484 10.484 19.6666V29" stroke="white" stroke-width="2" stroke-miterlimit="16"/>
</svg>
