<svg width="29" height="27" viewBox="0 0 29 27" fill="none" xmlns="http://www.w3.org/2000/svg">
<path d="M14.5 12.1112H18.25H22" stroke="white" stroke-width="2" stroke-linecap="round" stroke-linejoin="round"/>
<path d="M14.5 6.5556H18.25H22" stroke="white" stroke-width="2" stroke-linecap="round" stroke-linejoin="round"/>
<path d="M8.49976 17.6667V1.83333C8.49976 1.3731 8.9027 1 9.39976 1H27.0998C27.5969 1 27.9998 1.3731 27.9998 1.83333V20.4444C27.9998 23.5126 25.3134 26 21.9998 26" stroke="white" stroke-width="2" stroke-linecap="round" stroke-linejoin="round"/>
<path d="M4 17.6668H8.5H15.1C15.5971 17.6668 16.0046 18.0374 16.0447 18.4961C16.2289 20.6039 17.1718 26.0001 22 26.0001H8.5H5.5C3.01472 26.0001 1 24.1347 1 21.8335V20.4446C1 18.9104 2.34314 17.6668 4 17.6668Z" stroke="white" stroke-width="2" stroke-linecap="round" stroke-linejoin="round"/>
</svg>
